<svg width="239" height="74" viewBox="0 0 239 74" fill="none" xmlns="http://www.w3.org/2000/svg">
<g filter="url(#filter0_d)">
<path fill-rule="evenodd" clip-rule="evenodd" d="M36 2C37.2191 2 38.4222 2.06817 39.6058 2.2009L4.93117 26.3053C8.3762 12.3488 20.9795 2 36 2ZM4 34C4 32.0938 4.16667 30.2266 4.48622 28.412L41.7415 2.51366C45.0119 3.10612 48.1093 4.1956 50.9526 5.70104L4.26726 38.1548C4.09094 36.7948 4 35.408 4 34ZM4.52001 39.7765C5.01436 42.488 5.85043 45.0803 6.98196 47.5071L58.4741 11.7119L58.9211 11.6701C56.9806 9.6786 54.7828 7.93905 52.3814 6.5052L4.52001 39.7765ZM7.27397 48.1165C8.5467 50.7015 10.1581 53.0897 12.0502 55.2234L62.9004 19.8744L64.6408 19.7118C63.3452 17.1197 61.708 14.728 59.7882 12.5958L8.91106 47.9635L7.27397 48.1165ZM29.7592 65.3918C26.5815 64.7636 23.573 63.665 20.8091 62.1715L67.6968 29.577C67.8967 31.0228 68 32.4993 68 34C68 35.7315 67.8625 37.431 67.5977 39.0879L29.7592 65.3918ZM31.8529 65.7337C33.2104 65.9094 34.5946 66 36 66C51.2097 66 63.9409 55.3888 67.1946 41.1656L31.8529 65.7337ZM12.9194 56.1651C14.8381 58.1625 17.0136 59.9114 19.3927 61.3587L67.3267 28.0369L67.4433 28.026C66.9293 25.3038 66.0705 22.7034 64.914 20.272L13.3374 56.126L12.9194 56.1651Z" fill="#EEDB7A"/>
</g>
<g filter="url(#filter1_d)">
<circle cx="32.5" cy="30.5" r="4.5" fill="#7B7B7B"/>
</g>
<g filter="url(#filter2_d)">
<circle cx="43.5" cy="45.5" r="4.5" fill="#7B7B7B"/>
</g>
<path d="M61.6023 59.7487C56.6375 64.6436 50.312 67.977 43.4257 69.3275C36.5394 70.678 29.4015 69.9849 22.9147 67.3358C16.428 64.6867 10.8836 60.2007 6.98283 54.445C3.08204 48.6892 1 41.9223 1 35C1 28.0777 3.08204 21.3108 6.98283 15.555C10.8836 9.79932 16.428 5.31329 22.9147 2.66422C29.4015 0.01515 36.5394 -0.677967 43.4257 0.672514C50.312 2.023 56.6375 5.35642 61.6023 10.2513L56.853 14.9337C52.8275 10.965 47.6988 8.26222 42.1154 7.16725C36.5319 6.07228 30.7445 6.63426 25.4851 8.78212C20.2256 10.93 15.7302 14.5673 12.5675 19.234C9.40469 23.9008 7.71657 29.3874 7.71657 35C7.71657 40.6126 9.40469 46.0992 12.5675 50.766C15.7302 55.4327 20.2256 59.07 25.4851 61.2179C30.7445 63.3657 36.5319 63.9277 42.1154 62.8328C47.6988 61.7378 52.8275 59.035 56.853 55.0663L61.6023 59.7487Z" fill="#878484"/>
<path d="M79.204 44V28.514H80.944L81.495 31.211C82.191 30.3797 82.9643 29.6933 83.815 29.152C84.685 28.6107 85.6807 28.34 86.802 28.34C87.3627 28.34 87.846 28.3883 88.252 28.485V30.834C88.0007 30.7953 87.73 30.7663 87.44 30.747C87.15 30.7083 86.86 30.689 86.57 30.689C85.5067 30.689 84.598 30.892 83.844 31.298C83.09 31.6847 82.307 32.255 81.495 33.009V44H79.204ZM97.0712 44.174C95.4472 44.174 94.1615 43.9323 93.2142 43.449C92.2862 42.9657 91.6192 42.144 91.2132 40.984C90.8072 39.824 90.6042 38.2387 90.6042 36.228C90.6042 34.1787 90.8072 32.5837 91.2132 31.443C91.6385 30.283 92.3248 29.471 93.2722 29.007C94.2195 28.543 95.4955 28.311 97.1002 28.311C98.4535 28.311 99.5652 28.4657 100.435 28.775C101.305 29.0843 101.943 29.616 102.349 30.37C102.775 31.1047 102.987 32.1293 102.987 33.444C102.987 34.8167 102.591 35.7833 101.798 36.344C101.006 36.9047 99.9325 37.185 98.5792 37.185H92.8952C92.8952 38.4417 93.0208 39.4567 93.2722 40.23C93.5428 40.984 94.0165 41.535 94.6932 41.883C95.3698 42.2117 96.3462 42.376 97.6222 42.376H102.61V43.768C101.721 43.884 100.851 43.9807 100 44.058C99.1688 44.1353 98.1925 44.174 97.0712 44.174ZM92.8662 35.677H98.3762C99.2462 35.677 99.8842 35.5223 100.29 35.213C100.716 34.8843 100.928 34.3043 100.928 33.473C100.928 32.1583 100.638 31.2593 100.058 30.776C99.4782 30.2927 98.4922 30.051 97.1002 30.051C95.9982 30.051 95.1378 30.2153 94.5192 30.544C93.9198 30.8533 93.4945 31.4237 93.2432 32.255C92.9918 33.067 92.8662 34.2077 92.8662 35.677ZM113.863 44.174C112.587 44.174 111.475 44.029 110.528 43.739C109.58 43.449 108.797 42.927 108.179 42.173C107.56 41.3997 107.096 40.2977 106.787 38.867C106.497 37.4363 106.352 35.5707 106.352 33.27C106.352 31.1047 106.506 29.326 106.816 27.934C107.125 26.5227 107.589 25.4207 108.208 24.628C108.846 23.8353 109.648 23.2843 110.615 22.975C111.581 22.6463 112.722 22.482 114.037 22.482C114.636 22.482 115.303 22.5207 116.038 22.598C116.772 22.656 117.497 22.743 118.213 22.859C118.928 22.975 119.576 23.1103 120.156 23.265V24.976C119.846 24.9373 119.382 24.889 118.764 24.831C118.164 24.7537 117.478 24.686 116.705 24.628C115.951 24.57 115.177 24.541 114.385 24.541C113.36 24.541 112.48 24.6667 111.746 24.918C111.011 25.15 110.412 25.585 109.948 26.223C109.503 26.8417 109.174 27.731 108.962 28.891C108.749 30.0317 108.643 31.501 108.643 33.299C108.643 35.155 108.739 36.663 108.933 37.823C109.145 38.983 109.464 39.8723 109.89 40.491C110.334 41.1097 110.914 41.535 111.63 41.767C112.364 41.999 113.263 42.115 114.327 42.115C115.777 42.115 116.966 42.0763 117.894 41.999C118.822 41.9217 119.576 41.8347 120.156 41.738V43.478C119.266 43.6907 118.261 43.8647 117.14 44C116.038 44.116 114.945 44.174 113.863 44.174ZM123.724 44V22.656H126.044V32.545H136.716V22.656H139.007V44H136.716V34.604H126.044V44H123.724ZM151.206 44.174C149.833 44.174 148.625 44.0483 147.581 43.797C146.556 43.5263 145.696 43.0237 145 42.289C144.323 41.5543 143.811 40.4813 143.463 39.07C143.134 37.6393 142.97 35.7543 142.97 33.415C142.97 31.095 143.144 29.2197 143.492 27.789C143.84 26.339 144.362 25.237 145.058 24.483C145.754 23.7097 146.614 23.1877 147.639 22.917C148.663 22.627 149.852 22.482 151.206 22.482C152.598 22.482 153.806 22.627 154.831 22.917C155.875 23.1877 156.735 23.7097 157.412 24.483C158.108 25.237 158.62 26.339 158.949 27.789C159.277 29.2197 159.442 31.095 159.442 33.415C159.442 35.7543 159.268 37.6393 158.92 39.07C158.591 40.4813 158.079 41.5543 157.383 42.289C156.706 43.0237 155.846 43.5263 154.802 43.797C153.777 44.0483 152.578 44.174 151.206 44.174ZM151.206 42.115C152.288 42.115 153.207 42.0087 153.961 41.796C154.715 41.5833 155.324 41.1773 155.788 40.578C156.271 39.9787 156.619 39.1087 156.832 37.968C157.044 36.808 157.151 35.2903 157.151 33.415C157.151 31.4623 157.035 29.8963 156.803 28.717C156.59 27.5377 156.242 26.6483 155.759 26.049C155.295 25.4497 154.686 25.0533 153.932 24.86C153.178 24.6473 152.269 24.541 151.206 24.541C150.2 24.541 149.321 24.6473 148.567 24.86C147.832 25.0533 147.213 25.4497 146.711 26.049C146.227 26.6483 145.86 27.5377 145.609 28.717C145.377 29.8963 145.261 31.4623 145.261 33.415C145.261 35.2903 145.357 36.808 145.551 37.968C145.763 39.1087 146.102 39.9787 146.566 40.578C147.03 41.1773 147.639 41.5833 148.393 41.796C149.166 42.0087 150.104 42.115 151.206 42.115ZM163.373 44V22.656H171.783C172.459 22.656 173.126 22.743 173.784 22.917C174.46 23.0717 175.06 23.3713 175.582 23.816C176.123 24.2413 176.548 24.8697 176.858 25.701C177.167 26.5323 177.322 27.615 177.322 28.949C177.322 30.109 177.196 31.066 176.945 31.82C176.693 32.5547 176.365 33.1347 175.959 33.56C175.553 33.9853 175.108 34.3043 174.625 34.517C174.161 34.7297 173.706 34.8747 173.262 34.952L177.641 44H175.292L171.145 35.271C170.719 35.2517 170.168 35.242 169.492 35.242C168.834 35.2227 168.158 35.213 167.462 35.213C166.785 35.1937 166.195 35.1743 165.693 35.155V44H163.373ZM165.693 33.386H171.435C172.092 33.386 172.691 33.2797 173.233 33.067C173.774 32.835 174.209 32.4 174.538 31.762C174.866 31.124 175.031 30.1863 175.031 28.949C175.031 27.7503 174.857 26.8513 174.509 26.252C174.18 25.6527 173.745 25.2563 173.204 25.063C172.662 24.8503 172.073 24.744 171.435 24.744H165.693V33.386ZM181.016 44V22.656H189.455C191.176 22.656 192.549 23.0717 193.573 23.903C194.598 24.7343 195.333 25.9427 195.777 27.528C196.241 29.1133 196.473 31.0467 196.473 33.328C196.473 36.6727 195.884 39.2923 194.704 41.187C193.525 43.0623 191.775 44 189.455 44H181.016ZM183.336 41.941H189.281C190.983 41.941 192.22 41.1677 192.993 39.621C193.786 38.055 194.182 35.9573 194.182 33.328C194.182 31.2207 194.008 29.5387 193.66 28.282C193.332 27.0253 192.8 26.1263 192.065 25.585C191.35 25.0243 190.422 24.744 189.281 24.744H183.336V41.941ZM200.735 25.759C200.425 25.759 200.271 25.6043 200.271 25.295V23.033C200.271 22.7237 200.425 22.569 200.735 22.569H202.359C202.649 22.569 202.794 22.7237 202.794 23.033V25.295C202.794 25.6043 202.649 25.759 202.359 25.759H200.735ZM200.387 44V28.514H202.678V44H200.387ZM207.099 44V28.514H208.897L209.39 30.225C210.105 29.7223 210.956 29.268 211.942 28.862C212.947 28.456 213.981 28.253 215.045 28.253C216.185 28.253 217.104 28.4947 217.8 28.978C218.515 29.4613 219.027 30.0993 219.337 30.892C219.665 31.6847 219.83 32.545 219.83 33.473V44H217.539V33.734C217.539 32.748 217.249 31.936 216.669 31.298C216.108 30.66 215.325 30.341 214.32 30.341C213.314 30.341 212.444 30.4763 211.71 30.747C210.975 31.0177 210.202 31.385 209.39 31.849V44H207.099ZM227.946 51.105C226.438 51.105 225.211 50.786 224.263 50.148C223.316 49.51 222.842 48.553 222.842 47.277V46.581C222.842 45.6917 223.084 44.9473 223.567 44.348C224.07 43.768 224.679 43.3233 225.394 43.014C224.389 42.5307 223.886 41.767 223.886 40.723C223.886 39.9497 224.118 39.3407 224.582 38.896C225.046 38.4513 225.684 38.142 226.496 37.968C225.414 37.5233 224.679 36.8853 224.292 36.054C223.925 35.2033 223.741 34.343 223.741 33.473C223.741 31.675 224.273 30.399 225.336 29.645C226.419 28.8717 227.879 28.485 229.715 28.485H237.98V29.79L234.5 30.08C234.752 30.254 235.032 30.486 235.341 30.776C235.651 31.0467 235.912 31.443 236.124 31.965C236.356 32.4677 236.472 33.1637 236.472 34.053C236.472 34.8457 236.298 35.6093 235.95 36.344C235.622 37.0593 235.061 37.6393 234.268 38.084C233.476 38.5287 232.383 38.751 230.991 38.751H228.526C227.714 38.751 227.067 38.8767 226.583 39.128C226.119 39.36 225.887 39.7853 225.887 40.404C225.887 40.868 226.061 41.1967 226.409 41.39C226.757 41.5833 227.125 41.68 227.511 41.68H232.644C236.202 41.68 237.98 43.101 237.98 45.943V46.581C237.98 47.9923 237.497 49.0943 236.53 49.887C235.564 50.699 234.143 51.105 232.267 51.105H227.946ZM229.019 36.982H230.759C231.726 36.982 232.47 36.837 232.992 36.547C233.514 36.2377 233.872 35.8413 234.065 35.358C234.278 34.8747 234.384 34.3527 234.384 33.792C234.384 32.4967 234.065 31.588 233.427 31.066C232.809 30.544 232.006 30.283 231.02 30.283H229.367C228.265 30.283 227.395 30.5343 226.757 31.037C226.139 31.5203 225.829 32.371 225.829 33.589C225.829 34.7877 226.11 35.6577 226.67 36.199C227.25 36.721 228.033 36.982 229.019 36.982ZM228.468 49.423H232.064C233.224 49.423 234.133 49.2007 234.79 48.756C235.467 48.3113 235.805 47.6153 235.805 46.668V46.088C235.805 45.2953 235.554 44.6573 235.051 44.174C234.568 43.71 233.669 43.478 232.354 43.478H228.352C227.772 43.478 227.231 43.5747 226.728 43.768C226.226 43.942 225.81 44.232 225.481 44.638C225.172 45.044 225.017 45.566 225.017 46.204V46.842C225.017 47.77 225.327 48.4273 225.945 48.814C226.564 49.22 227.405 49.423 228.468 49.423Z" fill="#EEC07A"/>
<defs>
<filter id="filter0_d" x="0" y="2" width="72" height="72" filterUnits="userSpaceOnUse" color-interpolation-filters="sRGB">
<feFlood flood-opacity="0" result="BackgroundImageFix"/>
<feColorMatrix in="SourceAlpha" type="matrix" values="0 0 0 0 0 0 0 0 0 0 0 0 0 0 0 0 0 0 127 0"/>
<feOffset dy="4"/>
<feGaussianBlur stdDeviation="2"/>
<feColorMatrix type="matrix" values="0 0 0 0 0 0 0 0 0 0 0 0 0 0 0 0 0 0 0.25 0"/>
<feBlend mode="normal" in2="BackgroundImageFix" result="effect1_dropShadow"/>
<feBlend mode="normal" in="SourceGraphic" in2="effect1_dropShadow" result="shape"/>
</filter>
<filter id="filter1_d" x="24" y="26" width="17" height="17" filterUnits="userSpaceOnUse" color-interpolation-filters="sRGB">
<feFlood flood-opacity="0" result="BackgroundImageFix"/>
<feColorMatrix in="SourceAlpha" type="matrix" values="0 0 0 0 0 0 0 0 0 0 0 0 0 0 0 0 0 0 127 0"/>
<feOffset dy="4"/>
<feGaussianBlur stdDeviation="2"/>
<feColorMatrix type="matrix" values="0 0 0 0 0 0 0 0 0 0 0 0 0 0 0 0 0 0 0.25 0"/>
<feBlend mode="normal" in2="BackgroundImageFix" result="effect1_dropShadow"/>
<feBlend mode="normal" in="SourceGraphic" in2="effect1_dropShadow" result="shape"/>
</filter>
<filter id="filter2_d" x="35" y="41" width="17" height="17" filterUnits="userSpaceOnUse" color-interpolation-filters="sRGB">
<feFlood flood-opacity="0" result="BackgroundImageFix"/>
<feColorMatrix in="SourceAlpha" type="matrix" values="0 0 0 0 0 0 0 0 0 0 0 0 0 0 0 0 0 0 127 0"/>
<feOffset dy="4"/>
<feGaussianBlur stdDeviation="2"/>
<feColorMatrix type="matrix" values="0 0 0 0 0 0 0 0 0 0 0 0 0 0 0 0 0 0 0.25 0"/>
<feBlend mode="normal" in2="BackgroundImageFix" result="effect1_dropShadow"/>
<feBlend mode="normal" in="SourceGraphic" in2="effect1_dropShadow" result="shape"/>
</filter>
</defs>
</svg>
